<svg width="1073" height="13" viewBox="0 0 1073 13" fill="none" xmlns="http://www.w3.org/2000/svg">
<path d="M0.666673 7.00803C0.679343 9.95352 3.07743 12.3377 6.02294 12.3333C8.96846 12.3289 11.346 9.93746 11.3333 6.99197C11.3207 4.04648 8.92257 1.66228 5.97706 1.66672C3.03154 1.67115 0.654003 4.06254 0.666673 7.00803ZM1061.67 5.41101C1061.68 8.3565 1064.08 10.7407 1067.02 10.7363C1069.97 10.7318 1072.35 8.34045 1072.33 5.39495C1072.32 2.44946 1069.92 0.0652644 1066.98 0.069698C1064.03 0.0741316 1061.65 2.46552 1061.67 5.41101ZM6.0043 7.99999L1067 6.40297L1067 4.40299L5.9957 6.00001L6.0043 7.99999Z" fill="#A65C41"/>
</svg>
